<svg width="39" height="39" viewBox="0 0 39 39" fill="none" xmlns="http://www.w3.org/2000/svg">
<path d="M31.1 1.51999H7.9C6.29837 1.51999 5 2.81836 5 4.41999V34.58C5 36.1816 6.29837 37.48 7.9 37.48H31.1C32.7016 37.48 34 36.1816 34 34.58V4.41999C34 2.81836 32.7016 1.51999 31.1 1.51999Z" stroke="white" stroke-width="3"/>
<path d="M19.5 7.89999H11.38C10.7393 7.89999 10.22 8.41934 10.22 9.05999V17.18C10.22 17.8206 10.7393 18.34 11.38 18.34H19.5C20.1406 18.34 20.66 17.8206 20.66 17.18V9.05999C20.66 8.41934 20.1406 7.89999 19.5 7.89999Z" fill="white"/>
<path d="M27.04 21.82H11.96C10.999 21.82 10.22 22.599 10.22 23.56C10.22 24.521 10.999 25.3 11.96 25.3H27.04C28.0009 25.3 28.78 24.521 28.78 23.56C28.78 22.599 28.0009 21.82 27.04 21.82Z" fill="white"/>
<path d="M21.24 28.78H11.96C10.999 28.78 10.22 29.559 10.22 30.52C10.22 31.481 10.999 32.26 11.96 32.26H21.24C22.2009 32.26 22.98 31.481 22.98 30.52C22.98 29.559 22.2009 28.78 21.24 28.78Z" fill="white"/>
<path d="M27.04 7.89999H24.72C23.759 7.89999 22.98 8.67902 22.98 9.63999C22.98 10.601 23.759 11.38 24.72 11.38H27.04C28.001 11.38 28.78 10.601 28.78 9.63999C28.78 8.67902 28.001 7.89999 27.04 7.89999Z" fill="white"/>
</svg>
