<svg width="39" height="39" viewBox="0 0 39 39" fill="none" xmlns="http://www.w3.org/2000/svg">
<path d="M35.9211 5.54999H3.07896C2.22874 5.54999 1.53949 6.24395 1.53949 7.09999V31.9C1.53949 32.756 2.22874 33.45 3.07896 33.45H35.9211C36.7713 33.45 37.4605 32.756 37.4605 31.9V7.09999C37.4605 6.24395 36.7713 5.54999 35.9211 5.54999Z" stroke="white" stroke-width="3"/>
<path d="M18.5814 26.7333H15.6961V20.5333H10.0696V26.7333H7.1842V12.2667H10.0696V18.1289H15.6961V12.2667H18.5814V26.7333Z" fill="white"/>
<path d="M21.111 26.7333V12.2667H25.4199C26.651 12.2667 27.7506 12.5548 28.7188 13.1311C29.6935 13.7007 30.4533 14.5155 30.9982 15.5753C31.5433 16.6286 31.8158 17.8274 31.8158 19.1721V19.8378C31.8158 21.1825 31.5465 22.3781 31.0079 23.4247C30.4757 24.4713 29.7223 25.2827 28.7476 25.8589C27.773 26.4352 26.6734 26.7267 25.4487 26.7333H21.111ZM23.9964 14.681V24.3388H25.391C26.5195 24.3388 27.3819 23.9579 27.9782 23.1961C28.5746 22.4344 28.8791 21.3448 28.8919 19.9273V19.1622C28.8919 17.6917 28.597 16.5789 28.0071 15.8237C27.4172 15.0619 26.5548 14.681 25.4199 14.681H23.9964Z" fill="white"/>
</svg>
