<svg width="233" height="104" viewBox="0 0 233 104" fill="none" xmlns="http://www.w3.org/2000/svg">
<path d="M141.149 31H141.723C142.029 31 142.297 31.1171 142.527 31.3514C142.757 31.5857 142.872 31.859 142.872 32.1714V69.13H162.055C162.783 69.13 163.146 69.5205 163.146 70.3014V70.8286C163.146 71.141 163.031 71.4143 162.802 71.6486C162.61 71.8829 162.361 72 162.055 72H142.355C140.785 72 140 71.1605 140 69.4814V32.1714C140 31.859 140.115 31.5857 140.345 31.3514C140.574 31.1171 140.842 31 141.149 31Z" fill="#D81F26"/>
<path d="M171.131 31H171.648C171.954 31 172.222 31.1171 172.452 31.3514C172.682 31.5857 172.797 31.859 172.797 32.1714V70.8286C172.797 71.141 172.682 71.4143 172.452 71.6486C172.222 71.8829 171.954 72 171.648 72H171.131C170.787 72 170.499 71.8829 170.27 71.6486C170.078 71.4143 169.982 71.141 169.982 70.8286V32.1714C169.982 31.859 170.078 31.5857 170.27 31.3514C170.499 31.1171 170.787 31 171.131 31Z" fill="#D81F26"/>
<path d="M191.072 35.4514H191.647C192.413 35.4514 192.795 35.8224 192.795 36.5643V70.8286C192.795 71.141 192.681 71.4143 192.451 71.6486C192.259 71.8829 191.991 72 191.647 72H191.072C190.728 72 190.441 71.8829 190.211 71.6486C190.019 71.4143 189.924 71.141 189.924 70.8286V36.5643C189.924 35.8224 190.307 35.4514 191.072 35.4514ZM178.666 31H204.168C204.512 31 204.78 31.1171 204.972 31.3514C205.201 31.5857 205.316 31.859 205.316 32.1714V32.8157C205.316 33.5186 204.933 33.87 204.168 33.87H178.666C177.901 33.87 177.518 33.5186 177.518 32.8157V32.1714C177.518 31.859 177.633 31.5857 177.862 31.3514C178.092 31.1171 178.36 31 178.666 31Z" fill="#D81F26"/>
<path d="M211.806 31H231.851C232.158 31 232.426 31.1171 232.655 31.3514C232.885 31.5857 233 31.859 233 32.1714V32.6986C233 33.05 232.885 33.3429 232.655 33.5771C232.426 33.7724 232.158 33.87 231.851 33.87H212.381V69.13H231.851C232.158 69.13 232.426 69.2471 232.655 69.4814C232.885 69.6767 233 69.95 233 70.3014V70.8286C233 71.141 232.885 71.4143 232.655 71.6486C232.426 71.8829 232.158 72 231.851 72H211.749C210.83 72 210.217 71.8048 209.911 71.4143C209.643 70.9848 209.509 70.399 209.509 69.6571V33.2843C209.509 32.5033 209.681 31.9371 210.026 31.5857C210.371 31.1952 210.964 31 211.806 31ZM215.827 49.2743H228.118C228.463 49.2743 228.731 49.3914 228.922 49.6257C229.152 49.86 229.267 50.1333 229.267 50.4457V50.9729C229.267 51.7538 228.884 52.1443 228.118 52.1443H215.827C215.061 52.1443 214.678 51.7538 214.678 50.9729V50.4457C214.678 50.1333 214.774 49.86 214.965 49.6257C215.195 49.3914 215.482 49.2743 215.827 49.2743Z" fill="#D81F26"/>
<path d="M81.6744 103.11C98.5682 93.7234 110 75.6967 110 55C110 24.6243 85.3757 0 55 0C24.6243 0 0 24.6243 0 55C0 75.6967 11.4318 93.7234 28.3255 103.11C14.8869 94.3724 6 79.224 6 62C6 34.938 27.938 13 55 13C82.062 13 104 34.938 104 62C104 79.224 95.1131 94.3725 81.6744 103.11Z" fill="white"/>
<path d="M92.9546 80.0076C95.5485 74.5501 97 68.4446 97 62C97 38.804 78.196 20 55 20C31.804 20 13 38.804 13 62C13 68.4446 14.4515 74.5501 17.0454 80.0076C16.3618 77.1161 16 74.1003 16 71C16 49.4609 33.4609 32 55 32C76.5391 32 94 49.4609 94 71C94 74.1003 93.6382 77.1161 92.9546 80.0076Z" fill="white"/>
<path d="M55 89C69.3594 89 81 77.3594 81 63C81 57.9297 79.5486 53.1983 77.0387 49.1987C82.579 54.7989 86 62.5 86 71C86 88.1208 72.1208 102 55 102C37.8792 102 24 88.1208 24 71C24 62.5 27.421 54.7989 32.9613 49.1987C30.4514 53.1983 29 57.9297 29 63C29 77.3594 40.6406 89 55 89Z" fill="white"/>
<path d="M73 63C73 72.9411 64.9411 81 55 81C45.0589 81 37 72.9411 37 63C37 53.0589 45.0589 45 55 45C64.9411 45 73 53.0589 73 63Z" fill="white"/>
</svg>
